<mxfile host="app.diagrams.net" agent="Mozilla/5.0 (Windows NT 10.0; Win64; x64) AppleWebKit/537.36 (KHTML, like Gecko) Chrome/135.0.0.0 Safari/537.36 OPR/120.0.0.0" version="28.0.7">
  <diagram name="Страница — 1" id="n4viQvfi7PCmna_6CCVI">
    <mxGraphModel dx="2177" dy="730" grid="1" gridSize="10" guides="1" tooltips="1" connect="1" arrows="1" fold="1" page="1" pageScale="1" pageWidth="827" pageHeight="1169" math="0" shadow="0">
      <root>
        <mxCell id="0" />
        <mxCell id="1" parent="0" />
        <mxCell id="RVMOf5J3b26BWDi6N47h-5" style="edgeStyle=orthogonalEdgeStyle;rounded=0;orthogonalLoop=1;jettySize=auto;html=1;entryX=1;entryY=0.5;entryDx=0;entryDy=0;curved=1;" edge="1" parent="1" source="RVMOf5J3b26BWDi6N47h-1" target="RVMOf5J3b26BWDi6N47h-3">
          <mxGeometry relative="1" as="geometry" />
        </mxCell>
        <mxCell id="RVMOf5J3b26BWDi6N47h-12" style="edgeStyle=orthogonalEdgeStyle;rounded=0;orthogonalLoop=1;jettySize=auto;html=1;entryX=1;entryY=0.5;entryDx=0;entryDy=0;exitX=0.017;exitY=0.663;exitDx=0;exitDy=0;exitPerimeter=0;curved=1;" edge="1" parent="1" source="RVMOf5J3b26BWDi6N47h-1" target="RVMOf5J3b26BWDi6N47h-7">
          <mxGeometry relative="1" as="geometry" />
        </mxCell>
        <mxCell id="RVMOf5J3b26BWDi6N47h-27" style="edgeStyle=orthogonalEdgeStyle;rounded=0;orthogonalLoop=1;jettySize=auto;html=1;curved=1;" edge="1" parent="1" source="RVMOf5J3b26BWDi6N47h-1" target="RVMOf5J3b26BWDi6N47h-26">
          <mxGeometry relative="1" as="geometry" />
        </mxCell>
        <mxCell id="RVMOf5J3b26BWDi6N47h-1" value="Процесс автозавершения событий&amp;nbsp;" style="ellipse;whiteSpace=wrap;html=1;" vertex="1" parent="1">
          <mxGeometry x="360" y="300" width="120" height="80" as="geometry" />
        </mxCell>
        <mxCell id="RVMOf5J3b26BWDi6N47h-2" value="&lt;p data-pm-slice=&quot;1 1 []&quot;&gt;Включает: автоинформирование&lt;/p&gt;" style="rounded=1;whiteSpace=wrap;html=1;" vertex="1" parent="1">
          <mxGeometry x="400" y="90" width="160" height="60" as="geometry" />
        </mxCell>
        <mxCell id="RVMOf5J3b26BWDi6N47h-6" style="edgeStyle=orthogonalEdgeStyle;rounded=0;orthogonalLoop=1;jettySize=auto;html=1;entryX=1;entryY=0.5;entryDx=0;entryDy=0;curved=1;" edge="1" parent="1" source="RVMOf5J3b26BWDi6N47h-3" target="RVMOf5J3b26BWDi6N47h-4">
          <mxGeometry relative="1" as="geometry" />
        </mxCell>
        <mxCell id="RVMOf5J3b26BWDi6N47h-3" value="&lt;p data-pm-slice=&quot;1 1 []&quot;&gt;контрагенты&lt;/p&gt;" style="rounded=1;whiteSpace=wrap;html=1;" vertex="1" parent="1">
          <mxGeometry x="190" y="130" width="120" height="60" as="geometry" />
        </mxCell>
        <mxCell id="RVMOf5J3b26BWDi6N47h-4" value="&lt;p data-pm-slice=&quot;1 1 []&quot;&gt;вид к/а: признак Сеть – холдинг Хеликс&lt;/p&gt;" style="rounded=1;whiteSpace=wrap;html=1;" vertex="1" parent="1">
          <mxGeometry x="10" y="130" width="120" height="60" as="geometry" />
        </mxCell>
        <mxCell id="RVMOf5J3b26BWDi6N47h-15" style="edgeStyle=orthogonalEdgeStyle;rounded=0;orthogonalLoop=1;jettySize=auto;html=1;entryX=1;entryY=0.5;entryDx=0;entryDy=0;curved=1;" edge="1" parent="1" source="RVMOf5J3b26BWDi6N47h-7" target="RVMOf5J3b26BWDi6N47h-8">
          <mxGeometry relative="1" as="geometry" />
        </mxCell>
        <mxCell id="RVMOf5J3b26BWDi6N47h-16" style="edgeStyle=orthogonalEdgeStyle;rounded=0;orthogonalLoop=1;jettySize=auto;html=1;entryX=1;entryY=0.5;entryDx=0;entryDy=0;exitX=0;exitY=0.75;exitDx=0;exitDy=0;curved=1;" edge="1" parent="1" source="RVMOf5J3b26BWDi6N47h-7" target="RVMOf5J3b26BWDi6N47h-9">
          <mxGeometry relative="1" as="geometry" />
        </mxCell>
        <mxCell id="RVMOf5J3b26BWDi6N47h-19" style="edgeStyle=orthogonalEdgeStyle;rounded=0;orthogonalLoop=1;jettySize=auto;html=1;exitX=0.25;exitY=1;exitDx=0;exitDy=0;entryX=1;entryY=0.5;entryDx=0;entryDy=0;curved=1;" edge="1" parent="1" source="RVMOf5J3b26BWDi6N47h-7" target="RVMOf5J3b26BWDi6N47h-10">
          <mxGeometry relative="1" as="geometry" />
        </mxCell>
        <mxCell id="RVMOf5J3b26BWDi6N47h-7" value="&lt;p data-pm-slice=&quot;1 1 []&quot;&gt;Места забора не требуется включать в доработку&lt;/p&gt;" style="rounded=1;whiteSpace=wrap;html=1;" vertex="1" parent="1">
          <mxGeometry x="180" y="390" width="120" height="60" as="geometry" />
        </mxCell>
        <mxCell id="RVMOf5J3b26BWDi6N47h-8" value="&lt;p data-pm-slice=&quot;1 1 []&quot;&gt;к/а Медзум (все места забора)&lt;/p&gt;" style="rounded=1;whiteSpace=wrap;html=1;" vertex="1" parent="1">
          <mxGeometry y="410" width="120" height="60" as="geometry" />
        </mxCell>
        <mxCell id="RVMOf5J3b26BWDi6N47h-17" style="edgeStyle=orthogonalEdgeStyle;rounded=0;orthogonalLoop=1;jettySize=auto;html=1;entryX=1;entryY=0.5;entryDx=0;entryDy=0;exitX=0;exitY=0.15;exitDx=0;exitDy=0;exitPerimeter=0;curved=1;" edge="1" parent="1" source="RVMOf5J3b26BWDi6N47h-9" target="RVMOf5J3b26BWDi6N47h-13">
          <mxGeometry relative="1" as="geometry" />
        </mxCell>
        <mxCell id="RVMOf5J3b26BWDi6N47h-18" style="edgeStyle=orthogonalEdgeStyle;rounded=0;orthogonalLoop=1;jettySize=auto;html=1;entryX=1;entryY=0.5;entryDx=0;entryDy=0;curved=1;" edge="1" parent="1" source="RVMOf5J3b26BWDi6N47h-9" target="RVMOf5J3b26BWDi6N47h-14">
          <mxGeometry relative="1" as="geometry" />
        </mxCell>
        <mxCell id="RVMOf5J3b26BWDi6N47h-9" value="&lt;p data-pm-slice=&quot;1 1 []&quot;&gt;к/а Хеликс 77&lt;/p&gt;" style="rounded=1;whiteSpace=wrap;html=1;" vertex="1" parent="1">
          <mxGeometry y="480" width="120" height="60" as="geometry" />
        </mxCell>
        <mxCell id="RVMOf5J3b26BWDi6N47h-22" style="edgeStyle=orthogonalEdgeStyle;rounded=0;orthogonalLoop=1;jettySize=auto;html=1;entryX=1;entryY=0.5;entryDx=0;entryDy=0;curved=1;" edge="1" parent="1" source="RVMOf5J3b26BWDi6N47h-10" target="RVMOf5J3b26BWDi6N47h-21">
          <mxGeometry relative="1" as="geometry" />
        </mxCell>
        <mxCell id="RVMOf5J3b26BWDi6N47h-10" value="&lt;p data-pm-slice=&quot;1 1 []&quot;&gt;&amp;nbsp;к/а Хеликс-Мед&lt;/p&gt;" style="rounded=1;whiteSpace=wrap;html=1;" vertex="1" parent="1">
          <mxGeometry y="555" width="120" height="60" as="geometry" />
        </mxCell>
        <mxCell id="RVMOf5J3b26BWDi6N47h-25" style="edgeStyle=orthogonalEdgeStyle;rounded=0;orthogonalLoop=1;jettySize=auto;html=1;entryX=1;entryY=0.5;entryDx=0;entryDy=0;" edge="1" parent="1" source="RVMOf5J3b26BWDi6N47h-11" target="RVMOf5J3b26BWDi6N47h-24">
          <mxGeometry relative="1" as="geometry" />
        </mxCell>
        <mxCell id="RVMOf5J3b26BWDi6N47h-11" value="&lt;p data-pm-slice=&quot;1 1 []&quot;&gt;&amp;nbsp;к/а ООО &quot;НПФ&quot;ХЕЛИКС&quot;&lt;/p&gt;" style="rounded=1;whiteSpace=wrap;html=1;" vertex="1" parent="1">
          <mxGeometry y="630" width="120" height="60" as="geometry" />
        </mxCell>
        <mxCell id="RVMOf5J3b26BWDi6N47h-13" value="&lt;p data-pm-slice=&quot;1 1 []&quot;&gt;Мобильная служба Москва (Хеликс 77)&amp;nbsp;&lt;/p&gt;" style="rounded=1;whiteSpace=wrap;html=1;" vertex="1" parent="1">
          <mxGeometry x="-240" y="380" width="120" height="60" as="geometry" />
        </mxCell>
        <mxCell id="RVMOf5J3b26BWDi6N47h-14" value="&lt;p data-pm-slice=&quot;1 1 []&quot;&gt;Мобильная служба С-Пб (Хеликс 77)&lt;/p&gt;" style="rounded=1;whiteSpace=wrap;html=1;" vertex="1" parent="1">
          <mxGeometry x="-240" y="470" width="120" height="60" as="geometry" />
        </mxCell>
        <mxCell id="RVMOf5J3b26BWDi6N47h-20" value="Text" style="text;html=1;align=center;verticalAlign=middle;whiteSpace=wrap;rounded=0;" vertex="1" parent="1">
          <mxGeometry x="380" y="560" width="60" height="30" as="geometry" />
        </mxCell>
        <mxCell id="RVMOf5J3b26BWDi6N47h-21" value="&lt;p data-pm-slice=&quot;1 1 []&quot;&gt;Мобильная служба Екатеринбург&lt;/p&gt;" style="rounded=1;whiteSpace=wrap;html=1;" vertex="1" parent="1">
          <mxGeometry x="-240" y="555" width="120" height="60" as="geometry" />
        </mxCell>
        <mxCell id="RVMOf5J3b26BWDi6N47h-24" value="&lt;p data-pm-slice=&quot;1 1 []&quot;&gt;Мобильная служба Новосибирск&amp;nbsp;&lt;/p&gt;" style="rounded=1;whiteSpace=wrap;html=1;" vertex="1" parent="1">
          <mxGeometry x="-240" y="630" width="120" height="60" as="geometry" />
        </mxCell>
        <mxCell id="RVMOf5J3b26BWDi6N47h-28" style="edgeStyle=orthogonalEdgeStyle;rounded=0;orthogonalLoop=1;jettySize=auto;html=1;" edge="1" parent="1" source="RVMOf5J3b26BWDi6N47h-26" target="RVMOf5J3b26BWDi6N47h-2">
          <mxGeometry relative="1" as="geometry" />
        </mxCell>
        <mxCell id="RVMOf5J3b26BWDi6N47h-26" value="&lt;p data-pm-slice=&quot;1 1 []&quot;&gt;Подгруппа «не прошел сортировку»&lt;/p&gt;" style="rounded=1;whiteSpace=wrap;html=1;" vertex="1" parent="1">
          <mxGeometry x="420" y="200" width="120" height="60" as="geometry" />
        </mxCell>
      </root>
    </mxGraphModel>
  </diagram>
</mxfile>
